<svg width="377.953" height="100mm" viewBox="0 0 100 100" xmlns:xlink="http://www.w3.org/1999/xlink" xmlns="http://www.w3.org/2000/svg">
  <defs>
    <symbol overflow="visible" id="t">
      <path style="stroke:none" d="m16.625-25.688.016.297c1.394 1.48 2.457 3.094 3.187 4.844.79 1.906 1.145 3.75 1.063 5.531l8.062 2.75.094.25a7.549 7.549 0 0 1-1.344 2.407l-.25.046-7.156-2.484c-1.125 3.086-3.606 5.43-7.438 7.031-2.992 1.25-5.71 1.563-8.156.938C2.253-4.711.531-6.234-.469-8.641c-.687-1.625-.86-3.254-.515-4.89.343-1.633 1.172-3.227 2.484-4.781l-.094-.235c-1.539-.562-2.77-1.258-3.687-2.094-.926-.843-1.645-1.875-2.156-3.093-.926-2.196-.915-4.223.03-6.078.95-1.864 2.794-3.368 5.532-4.516 2.426-1.02 4.984-1.461 7.672-1.328l.25 2.968-.484.22c-2.274-.344-4.418-.087-6.438.765-1.75.73-2.906 1.695-3.469 2.89-.57 1.188-.547 2.524.078 4 .399.95.97 1.727 1.72 2.329.75.593 1.85 1.117 3.312 1.562l14.359 4.969c0-1.258-.29-2.57-.86-3.938-.742-1.78-1.874-3.328-3.406-4.64l-3.125 1.312-.312-.187-.719-2.407 12.75-5.343.39.187.641 2.422zM12.141-7.75c2.789-1.176 4.617-2.906 5.484-5.188L3.656-17.765c-.918 1.157-1.496 2.36-1.734 3.61-.242 1.25-.106 2.484.406 3.703.758 1.812 2.031 2.95 3.813 3.406 1.78.461 3.78.227 6-.703zm0 0"/>
    </symbol>
    <symbol overflow="visible" id="d">
      <path style="stroke:none" d="m-20.965-22.332 1.45 2.89c2.105.075 4.078.637 5.843 1.723 1.805 1.07 3.176 2.59 4.117 4.469 1.41 2.813 1.602 5.727.496 8.77-1.011 2.949-2.98 5.113-5.836 6.543-2.851 1.43-5.761 1.714-8.77.777-1.39-.43-2.687-1.145-3.87-2.102-1.164-.918-2.067-1.968-2.672-3.172-.582-1.164-.941-2.25-1.129-3.285-.547-3.152.07-6.047 1.89-8.699l-1.449-2.89c-1.914 2.183-3.097 4.699-3.523 7.593-.414 2.93.023 5.672 1.32 8.262 1.79 3.566 4.61 5.914 8.442 7.094 1.785.562 3.664.746 5.558.593 1.918-.113 3.758-.66 5.524-1.543C-9.973 2.883-7.531.156-6.22-3.602c1.383-3.793 1.157-7.437-.633-11.003-1.296-2.594-3.234-4.582-5.847-6.043-2.574-1.387-5.297-1.95-8.266-1.684zm0 0"/>
    </symbol>
    <symbol overflow="visible" id="e">
      <path style="stroke:none" d="M-14.527-14.48c1.757-.575 3.445-.418 5.086.418 1.695.859 2.773 2.144 3.347 3.902.57 1.754.469 3.469-.406 5.12-.824 1.685-2.105 2.763-3.863 3.337-1.754.57-3.43.453-5.121-.406-1.645-.836-2.778-2.145-3.348-3.903-.574-1.758-.418-3.441.406-5.12.875-1.657 2.145-2.778 3.899-3.348zm-.91-2.797c-2.516.82-4.372 2.441-5.583 4.824-1.214 2.383-1.43 4.836-.609 7.351.832 2.559 2.453 4.415 4.836 5.625 2.383 1.211 4.828 1.387 7.344.57C-6.895.259-5.023-1.32-3.852-3.69-2.64-6.074-2.48-8.56-3.3-11.074c-.804-2.473-2.398-4.383-4.781-5.598-2.344-1.223-4.8-1.437-7.356-.605zm0 0"/>
    </symbol>
    <symbol overflow="visible" id="f">
      <path style="stroke:none" d="m-2.906-15.652-.535-2.891-11.356 2.11c-2.105.39-3.691 1.285-4.773 2.593a6.204 6.204 0 0 0-1.153 2.309c-.218.894-.234 1.965.004 3.246a6.11 6.11 0 0 0 1.668 3.234 7.154 7.154 0 0 0 2.906 1.852l-3.136.586.535 2.89L-.574-3.098l-.54-2.89-7.597 1.41c-2.312.43-4.203.355-5.727-.262a6.311 6.311 0 0 1-2.21-1.555c-.594-.656-1.036-1.644-1.262-2.882-.23-1.239.062-2.192.789-2.88.726-.69 1.703-1.171 2.86-1.386zm0 0"/>
    </symbol>
    <symbol overflow="visible" id="g">
      <path style="stroke:none" d="M-2.969-5.617c-.457.746-1.261 1.344-2.457 1.715l.2 3.101C-1.454-1.676.276-4.227 0-8.5c-.063-1.008-.207-1.926-.516-2.79a8.48 8.48 0 0 0-1.199-2.276c-1.055-1.364-2.566-1.985-4.539-1.856-2.012.129-3.375 1.14-4.176 3.129-.324.82-.562 1.719-.707 2.7a34.498 34.498 0 0 1-.547 2.644c-.199.851-.488 1.547-.832 2.113-.343.57-.91.902-1.75.957-.836.05-1.488-.242-1.906-.89-.465-.641-.723-1.426-.781-2.305-.059-.922.098-1.735.394-2.383.293-.648.934-1.195 1.922-1.555l-.203-3.144c-1.82.496-3.07 1.379-3.707 2.597-.676 1.262-.957 2.754-.844 4.555.114 1.762.72 3.281 1.723 4.52 1.047 1.195 2.473 1.777 4.316 1.66a4.113 4.113 0 0 0 2.301-.863c.68-.551 1.18-1.297 1.54-2.247.323-.863.558-1.761.753-2.699a40.33 40.33 0 0 1 .54-2.687c.507-1.926 1.37-2.95 2.542-3.024 2.012-.133 3.063 1.149 3.235 3.832.074 1.13-.075 2.11-.528 2.895zm0 0"/>
    </symbol>
    <symbol overflow="visible" id="h">
      <path style="stroke:none" d="m-15.703-1.473.187-4.617L.22-5.457l.12-2.938-15.737-.632.183-4.575-2.726-.109-.184 4.574-7.176-.289-.12 2.938 7.175.289-.184 4.613zm0 0"/>
    </symbol>
    <symbol overflow="visible" id="i">
      <path style="stroke:none" d="M-6.305-19.086c1.785.285 3.262 1.16 4.348 2.61C-.828-15.02-.41-13.38-.695-11.599c-.293 1.828-1.203 3.254-2.73 4.286C-4.91-6.273-6.579-5.945-8.36-6.23c-1.743-.278-3.227-1.11-4.356-2.567s-1.547-3.098-1.254-4.922c.285-1.785 1.196-3.21 2.723-4.242 1.523-1.035 3.2-1.402 4.941-1.125zm9.59-1.441-18.25-2.922-.465 2.902 3.153.504c-.274.129-.516.3-.75.434-2.184 1.437-3.52 3.394-3.918 5.882-.403 2.528.254 4.805 1.882 6.852 1.641 1.965 3.708 3.145 6.239 3.55 2.57.41 4.902-.066 7.031-1.429 2.23-1.43 3.523-3.39 3.926-5.922.398-2.488-.219-4.754-1.887-6.808-.14-.192-.312-.434-.535-.641l3.11.5zm0 0"/>
    </symbol>
    <symbol overflow="visible" id="j">
      <path style="stroke:none" d="m4.578-15.246.848-2.816-11.063-3.32c-2.05-.618-3.87-.552-5.43.12a6.256 6.256 0 0 0-2.081 1.524c-.606.699-1.106 1.644-1.48 2.89a6.087 6.087 0 0 0 .003 3.641 7.118 7.118 0 0 0 1.734 2.977l-3.054-.918-.848 2.816 17.7 5.316.843-2.816-7.398-2.223c-2.254-.675-3.903-1.613-4.977-2.855-.578-.7-1-1.485-1.254-2.395-.226-.855-.164-1.933.2-3.14.359-1.207 1.058-1.918 2.019-2.2.96-.28 2.05-.261 3.176.079zm0 0"/>
    </symbol>
    <symbol overflow="visible" id="k">
      <path style="stroke:none" d="m-14.145-6.98 1.82-4.247L2.153-5.02l1.16-2.699-14.476-6.207 1.805-4.21-2.512-1.075-1.8 4.207-6.602-2.828-1.16 2.7 6.601 2.831-1.82 4.246zm0 0"/>
    </symbol>
    <symbol overflow="visible" id="l">
      <path style="stroke:none" d="M10.102-28.918 8.21-26.293c.906 1.898 1.32 3.906 1.172 5.977-.11 2.093-.824 4.011-2.055 5.714-1.844 2.555-4.336 4.07-7.547 4.5-3.082.465-5.91-.28-8.496-2.148-2.59-1.867-4.187-4.316-4.75-7.418-.262-1.43-.226-2.91.074-4.402.274-1.457.79-2.746 1.575-3.836.761-1.055 1.562-1.875 2.39-2.52 2.543-1.945 5.395-2.738 8.586-2.347l1.895-2.625c-2.82-.688-5.598-.57-8.364.386-2.785.992-5.015 2.649-6.714 4.996-2.332 3.235-3.11 6.82-2.383 10.766.328 1.84 1.031 3.594 2.047 5.203.984 1.645 2.32 3.024 3.922 4.18C-7.168-7.507-3.625-6.605.316-7.18c4.004-.527 7.13-2.414 9.465-5.652 1.696-2.348 2.563-4.984 2.653-7.977.039-2.925-.723-5.601-2.332-8.109zm0 0"/>
    </symbol>
    <symbol overflow="visible" id="m">
      <path style="stroke:none" d="M6.121-19.578c1.32 1.293 1.961 2.86 1.98 4.703.02 1.898-.617 3.45-1.91 4.77-1.293 1.32-2.859 2.023-4.73 2.011-1.871.051-3.422-.586-4.742-1.879-1.32-1.293-1.992-2.832-2.012-4.734-.02-1.84.617-3.45 1.91-4.77 1.293-1.32 2.86-1.96 4.73-2.011 1.872.011 3.454.617 4.774 1.91zm2.055-2.102c-1.887-1.847-4.184-2.746-6.86-2.718-2.671.027-4.949.972-6.8 2.863-1.88 1.922-2.778 4.219-2.746 6.89.027 2.672 1 4.918 2.89 6.77 1.922 1.883 4.188 2.809 6.832 2.75 2.672-.027 4.95-1.031 6.797-2.922 1.824-1.86 2.781-4.156 2.75-6.828.004-2.645-.941-4.922-2.863-6.805zm0 0"/>
    </symbol>
    <symbol overflow="visible" id="n">
      <path style="stroke:none" d="M11.246 4.566 2.883-6.219c.254.121.55.156.785.188 2.602.48 4.887-.07 6.914-1.64 1.992-1.544 3.094-3.618 3.277-6.259.168-2.523-.496-4.824-2.093-6.883-1.567-2.023-3.63-3.242-6.141-3.742-2.578-.445-4.887.07-6.879 1.614-2.027 1.57-3.101 3.68-3.312 6.289-.004.265-.04.562.015.84l-1.957-2.524-2.324 1.8L8.922 6.368ZM9.441-19.012c1.11 1.43 1.59 3.075 1.391 4.88-.172 1.831-.988 3.316-2.418 4.421-1.46 1.133-3.101 1.555-4.918 1.262C1.703-8.707.258-9.605-.848-11.035-1.93-12.43-2.44-14.051-2.27-15.883c.172-1.836.989-3.32 2.45-4.449 1.43-1.11 3.07-1.527 4.886-1.238 1.82.289 3.297 1.164 4.375 2.558zm0 0"/>
    </symbol>
    <symbol overflow="visible" id="o">
      <path style="stroke:none" d="M10.074 6.246 6.34-25.199l-2.82 1.664 1.742 13.36-11.399-7.66-2.894 1.706L5.48-6.746 7 8.063Zm0 0"/>
    </symbol>
    <symbol overflow="visible" id="p">
      <path style="stroke:none" d="m25.918-.875 2.8-31.453-2.96.367-1.875 21.137-11.254-21.207L6.836-8.715l-6.922-20.05-3 .37L7.328 1.422l6.246-25.824Zm0 0"/>
    </symbol>
    <symbol overflow="visible" id="q">
      <path style="stroke:none" d="M18.55-8.754c-.058 1.848-.777 3.383-2.12 4.64-1.383 1.305-2.957 1.884-4.805 1.829-1.844-.059-3.422-.738-4.68-2.121C5.641-5.75 5.06-7.324 5.117-9.168c.059-1.848.735-3.383 2.121-4.684 1.34-1.261 2.957-1.882 4.805-1.824 1.848.055 3.379.774 4.684 2.117 1.257 1.387 1.882 2.961 1.824 4.805zm2.938.094c.082-2.645-.812-4.942-2.64-6.89-1.832-1.95-4.07-2.985-6.715-3.067-2.688-.082-4.985.812-6.93 2.644-1.95 1.828-2.941 4.067-3.023 6.711-.086 2.688.77 4.985 2.601 6.89C6.61-.425 8.891.57 11.535.653c2.602.082 4.942-.77 6.887-2.601 1.95-1.79 2.984-4.024 3.066-6.711zm0 0"/>
    </symbol>
    <symbol overflow="visible" id="r">
      <path style="stroke:none" d="m14.645-12.66.554-3.781a4.684 4.684 0 0 0-1.773-.641c-2.078-.309-3.742.637-5.031 2.738l-.235.73.559-3.78-2.91-.43L3.117.46l2.906.426 1.348-9.14c.223-1.497.75-2.778 1.633-3.88a4.975 4.975 0 0 1 1.562-1.383 3.208 3.208 0 0 1 2.051-.375c.746.11 1.406.547 2.028 1.23zm0 0"/>
    </symbol>
    <symbol overflow="visible" id="s">
      <path style="stroke:none" d="m5.898 1.512 2.2-8.586 4.84 10.39 3.785.97-5.489-11.247 9.598-6.82-3.785-.969-8.625 6.414 5.297-20.668-2.848-.726L3.051.78Zm0 0"/>
    </symbol>
  </defs>
  <use xlink:href="#a" x="254.203" y="177.834" width="100%" height="100%" style="fill:#000;fill-opacity:1" transform="matrix(.14315 0 0 .14315 -2.835 -5.245)"/>
  <use xlink:href="#b" x="273.81" y="169.295" width="100%" height="100%" style="fill:#000;fill-opacity:1" transform="matrix(.14315 0 0 .14315 -2.835 -5.245)"/>
  <use xlink:href="#c" x="294.098" y="162.528" width="100%" height="100%" style="fill:#000;fill-opacity:1" transform="matrix(.14315 0 0 .14315 -2.835 -5.245)"/>
  <g style="fill:#4d4d4d;fill-opacity:1;stroke:none" transform="matrix(.14315 0 0 .14315 -1.332 -5.03)">
    <use xlink:href="#d" x="151.663" y="515.783" width="100%" height="100%" style="fill:#4d4d4d;stroke:none"/>
  </g>
  <g style="fill:#4d4d4d;fill-opacity:1;stroke:none" transform="matrix(.14315 0 0 .14315 -1.332 -5.03)">
    <use xlink:href="#e" x="134.709" y="479.79" width="100%" height="100%" style="fill:#4d4d4d;stroke:none"/>
  </g>
  <g style="fill:#4d4d4d;fill-opacity:1;stroke:none" transform="matrix(.14315 0 0 .14315 -1.332 -5.03)">
    <use xlink:href="#f" x="125.274" y="448.654" width="100%" height="100%" style="fill:#4d4d4d;stroke:none"/>
  </g>
  <g style="fill:#4d4d4d;fill-opacity:1;stroke:none" transform="matrix(.14315 0 0 .14315 -1.332 -5.03)">
    <use xlink:href="#g" x="120.315" y="418.071" width="100%" height="100%" style="fill:#4d4d4d;stroke:none"/>
  </g>
  <g style="fill:#4d4d4d;fill-opacity:1;stroke:none" transform="matrix(.14315 0 0 .14315 -1.332 -5.03)">
    <use xlink:href="#h" x="119.196" y="391.394" width="100%" height="100%" style="fill:#4d4d4d;stroke:none"/>
  </g>
  <g style="fill:#4d4d4d;fill-opacity:1;stroke:none" transform="matrix(.14315 0 0 .14315 -1.332 -5.03)">
    <use xlink:href="#i" x="120.409" y="367.97" width="100%" height="100%" style="fill:#4d4d4d;stroke:none"/>
  </g>
  <g style="fill:#4d4d4d;fill-opacity:1;stroke:none" transform="matrix(.14315 0 0 .14315 -1.332 -5.03)">
    <use xlink:href="#j" x="126.381" y="335.16" width="100%" height="100%" style="fill:#4d4d4d;stroke:none"/>
  </g>
  <g style="fill:#4d4d4d;fill-opacity:1;stroke:none" transform="matrix(.14315 0 0 .14315 -1.332 -5.03)">
    <use xlink:href="#k" x="136.045" y="305.637" width="100%" height="100%" style="fill:#4d4d4d;stroke:none"/>
  </g>
  <g style="fill:#4d4d4d;fill-opacity:1;stroke:none" transform="matrix(.14315 0 0 .14315 -1.332 -5.03)">
    <use xlink:href="#l" x="155.883" y="265.644" width="100%" height="100%" style="fill:#4d4d4d;stroke:none"/>
  </g>
  <g style="fill:#4d4d4d;fill-opacity:1;stroke:none" transform="matrix(.14315 0 0 .14315 -1.332 -5.03)">
    <use xlink:href="#m" x="179.951" y="233.961" width="100%" height="100%" style="fill:#4d4d4d;stroke:none"/>
  </g>
  <g style="fill:#4d4d4d;fill-opacity:1;stroke:none" transform="matrix(.14315 0 0 .14315 -1.332 -5.03)">
    <use xlink:href="#n" x="203.1" y="211.195" width="100%" height="100%" style="fill:#4d4d4d;stroke:none"/>
  </g>
  <g style="fill:#4d4d4d;fill-opacity:1;stroke:none" transform="matrix(.14315 0 0 .14315 -1.332 -5.03)">
    <use xlink:href="#o" x="230.009" y="191.338" width="100%" height="100%" style="fill:#4d4d4d;stroke:none"/>
  </g>
  <g style="fill:#4d4d4d;fill-opacity:1;stroke:none" transform="matrix(.14315 0 0 .14315 -1.332 -5.03)">
    <use xlink:href="#p" x="314.232" y="157.213" width="100%" height="100%" style="fill:#4d4d4d;stroke:none"/>
  </g>
  <g style="fill:#4d4d4d;fill-opacity:1;stroke:none" transform="matrix(.14315 0 0 .14315 -1.332 -5.03)">
    <use xlink:href="#q" x="356.022" y="153.134" width="100%" height="100%" style="fill:#4d4d4d;stroke:none"/>
  </g>
  <g style="fill:#4d4d4d;fill-opacity:1;stroke:none" transform="matrix(.14315 0 0 .14315 -1.332 -5.03)">
    <use xlink:href="#r" x="388.726" y="154.997" width="100%" height="100%" style="fill:#4d4d4d;stroke:none"/>
  </g>
  <g style="fill:#4d4d4d;fill-opacity:1;stroke:none" transform="matrix(.14315 0 0 .14315 -1.332 -5.03)">
    <use xlink:href="#s" x="411.307" y="158.722" width="100%" height="100%" style="fill:#4d4d4d;stroke:none"/>
  </g>
  <g style="fill:#4d4d4d;fill-opacity:1;stroke:none" transform="matrix(.14315 0 0 .14315 -1.332 -5.03)">
    <use xlink:href="#t" x="266.594" y="174.582" width="100%" height="100%" style="fill:#4d4d4d;stroke:none"/>
  </g>
  <path style="fill:none;stroke:gray;stroke-width:.75;stroke-linecap:square;stroke-linejoin:miter;stroke-dashoffset:56.0882;stop-color:#000" transform="matrix(-.17333 -.36688 .36688 -.17333 29.675 -9.293)" d="M-177.178 66.942a87.935 87.935 0 0 1-67.17-88.242 87.935 87.935 0 0 1 72.616-83.816"/>
  <path style="fill:none;stroke:gray;stroke-width:.75;stroke-linecap:square;stroke-linejoin:miter;stroke-miterlimit:4;stroke-dasharray:none;stroke-dashoffset:56.0882;stop-color:#000" transform="matrix(-.17333 -.36688 .36688 -.17333 29.675 -9.293)" d="M-98.083 47.248a87.935 87.935 0 0 1-55.268 22.115"/>
  <path style="fill:#990100;fill-opacity:1;stroke:none;stroke-width:2.64186;stroke-miterlimit:4;stroke-dasharray:none;stroke-opacity:1" d="M-129.082 303.026c-19.537 6.311-38.669 1.127-49.717-13.472-2.611-3.45-5.413-9.548-6.372-13.867-2.074-9.342-.983-19.283 3.084-28.096l1.773-3.844 24.44-5.314 5.279-1.443-3.949 3.553c-18.545 17.983-.261 42.548 18.013 40.949l7.451 21.54z" transform="matrix(.35286 0 0 .35286 97.414 -29.572)"/>
  <path style="fill:none;stroke:#ccc;stroke-width:16.6;stroke-linecap:butt;stroke-linejoin:miter;stroke-miterlimit:4;stroke-dasharray:none;stroke-opacity:1" d="M-142 261.809c-.616.228-.696-.588-1.291-.321-38.355-4.994-41.033-86.924 15.015-85.108l2.422.006" transform="matrix(.35286 0 0 .35286 97.414 -29.572)"/>
  <path style="color:#000;fill:#4d4d4d;stroke-width:13.2093;-inkscape-stroke:none" d="m-31.23 169.869-36.558 58.668-6.914-51.522-6.037-.8c-9.984-1.358-19.246 1.124-25.31 7.327-6.063 6.203-8.81 14.619-10.577 24.33-1.197 6.574-1.73 13.638-2.374 21.284-.959 11.393-4.316 16.264-8.1 19.504-3.213 2.75-7.48 4.119-11.843 5.702-3.609-.387-5.775-.835-7.856-1.912l2.155 16.824c1.917.651 3.727 1.35 5.483 1.691.68.128 1.709.135 3.65-.582 4.283-1.583 11.917-3.65 18.833-9.571 6.917-5.922 12.402-15.817 13.623-30.315.648-7.716 1.195-14.427 2.167-19.762 1.499-8.233 3.859-13.53 6.269-15.996 1.226-1.254 4.122-.9 5.96-1.367l10.913 81.371 60.087-96.412z" transform="matrix(.35286 0 0 .35286 97.414 -29.572)"/>
  <path style="fill:#520;fill-opacity:1;stroke:none;stroke-width:2.64186;stroke-miterlimit:4;stroke-dasharray:none;stroke-opacity:1" d="M-94.216 175.15c-3.74.018-7.427.794-11.282 2.38-4.814 1.978-7.563 3.907-10.799 7.581-1.988 2.259-2.771 3.608-4.518 7.784-2.471 5.908-3.013 8.393-4.792 21.967-1.718 13.11-2.499 17.07-4.157 21.099-2.193 5.324-6.012 8.91-12.133 11.218l-2.542 20.443c1.267.038 2.44.026 3.402-.043 13.101-.946 23.888-8.466 30.04-20.943l1.4-2.84.771 1.242c3.61 5.807 4.279 12.44 1.8 17.822-4.812 10.445-15.369 17.112-29.505 18.632-18.274 1.599-36.557-22.966-18.012-40.949l3.948-3.553-5.28 1.443-24.439 5.314-1.773 3.844c-4.067 8.813-5.157 18.754-3.084 28.096.959 4.319 3.761 10.417 6.372 13.867 11.048 14.599 30.18 19.783 49.718 13.472l.002.006c3.92-1.266 10.016-3.982 14.577-6.492 21.685-11.934 31.53-30.912 25.8-49.727-2.601-8.537-8.319-18.224-15.375-21.997l-2.275-1.216.74-10.43c.406-5.737 1.444-11.106 1.657-11.932.912-3.53 4.632-8.024 8.617-9.73 2.07-.886 2.953-.502 5.389-.41 1.602.066 3.02.067 3.153.014.314-.13 4.82-13.538 4.667-13.886-.175-.398-9.052-2.017-11.339-2.069-.25-.006-.499-.008-.748-.007zm-59.017 74.959-.118.745c-.027.166-.083.703-.156 1.457z" transform="matrix(.35286 0 0 .35286 97.414 -29.572)"/>
  <path style="fill:#fc0;fill-opacity:1;stroke:none;stroke-width:2.64186;stroke-miterlimit:4;stroke-dasharray:none;stroke-opacity:1" d="M-98.4 170.965c-3.74.017-7.426.794-11.281 2.38-4.815 1.978-7.563 3.907-10.799 7.581-1.988 2.258-2.772 3.607-4.518 7.784-2.472 5.907-3.014 8.392-4.792 21.966-1.718 13.11-2.499 17.071-4.157 21.099-2.02 4.906-5.422 8.335-10.732 10.65l-2.606 20.96c.654.012 1.338.014 2.064.008 13.101-.945 23.888-8.466 30.04-20.943l1.4-2.84.772 1.242c3.609 5.808 4.278 12.44 1.798 17.823-4.81 10.445-15.368 17.11-29.504 18.631-14.209 1.528-24.138-4.903-25.104-16.26-.775-9.133 3.593-17.205 13.364-24.689l3.949-3.024-35.992 6.228-1.773 3.844c-4.067 8.813-5.158 18.754-3.084 28.096.959 4.319 3.761 10.417 6.372 13.867 11.048 14.599 30.18 19.783 49.718 13.472l.003.004c3.92-1.265 10.015-3.982 14.577-6.492 21.684-11.934 31.53-30.912 25.8-49.727-2.602-8.537-8.811-17.421-15.375-21.997l-1.746-1.217.74-10.43c.406-5.736.915-11.105 1.127-11.93.913-3.53 4.632-7.496 8.617-9.202 2.07-.882 2.954-1.037 5.39-.94 1.601.064 3.02.072 3.153.017.314-.13 4.82-13.537 4.667-13.886-.176-.398-9.052-2.017-11.339-2.069-.25-.006-.5-.007-.749-.006z" transform="matrix(.35286 0 0 .35286 97.414 -29.572)"/>
  <path style="fill:maroon;stroke:none;stroke-width:2.64186;stroke-miterlimit:4;stroke-dasharray:none;stroke-opacity:1" d="M-165.505 244.447c-14.462 3.196-30.456-5.107-38.463-19.967-1.7-3.155-3.756-10.153-4.142-14.097-.385-3.927.194-9.619 1.405-13.817.942-3.266 1.486-4.433 4.136-8.877 5.79-9.725 11.97-14.496 21.421-16.58 10.94-2.412 22.018 2.046 27.467 11.051 2.037 3.366 3.3 8.901 3.029 13.26-.214 3.425-2.874 13.82-3.583 13.997-.416.105-13.337-6.419-13.744-6.94-.19-.244.119-1.567.735-3.097 1.303-3.257 1.339-5.055.138-6.977-2.856-4.57-10.006-5.05-14.458-.972-1.747 1.6-5.199 7.15-6.02 9.683-1.31 4.033-.963 8.906.914 12.85 2.709 5.69 9.037 10.357 14.776 10.897 4.497.422 11.415-2.66 16.568-7.381 1.615-1.479 6.288-6.707 6.907-7.726.08-.142 2.9 1.45 6.257 3.532l6.107 3.782c-4.806 10.693-14.371 24.046-29.451 27.38z" transform="matrix(.35286 0 0 .35286 97.414 -29.572)"/>
  <path style="color:#000;fill:#999;stroke-width:13.2093;-inkscape-stroke:none" d="m-33.863 167.722-37.641 59.88-6.914-51.624-6.037-.826c-9.985-1.358-19.246 1.124-25.31 7.327-6.063 6.203-8.81 14.618-10.577 24.329-1.197 6.575-1.73 13.64-2.374 21.285-.803 9.539-3.4 14.517-6.32 17.775-2.921 3.259-6.571 5.59-10.733 7.16-1.417.534-2.895 1.033-4.386 1.574-.842.107-1.791-.698-2.4-.426l-1.212 13.622c.066.055.758.801 2.477 1.47 1.718.67 4.402.666 6.062.052 1.394-.515 3.152-1.12 5.109-1.858 5.035-1.9 11.571-4.854 17.002-10.913 5.43-6.059 9.323-14.976 10.345-27.115.649-7.716 1.196-14.428 2.167-19.763 1.5-8.233 3.86-13.53 6.27-15.995 1.223-1.252 4.128-.9 5.96-1.368l10.886 81.269 61.171-97.342z" transform="matrix(.35286 0 0 .35286 97.414 -29.572)"/>
  <path style="color:#000;fill:#ccc;stroke-width:13.2093;-inkscape-stroke:none" d="M-161.449 262.321c5.89 5.068 12.238 7.24 20.042 8.281l-.181-16.77c-6.042-.786-10.743-4.116-14.394-9.623-2.779-4.657-4.718 14.768-5.467 18.112z" transform="matrix(.35286 0 0 .35286 97.414 -29.572)"/>
</svg>
