<?xml version="1.0" encoding="UTF-8" standalone="no"?>
<svg
   width="1392.657"
   height="721.556"
   viewBox="0 0 368.474 190.912"
   version="1.1"
   id="svg65"
   sodipodi:docname="motto-lighttheme.svg"
   inkscape:version="1.1.1 (3bf5ae0d25, 2021-09-20)"
   xmlns:inkscape="http://www.inkscape.org/namespaces/inkscape"
   xmlns:sodipodi="http://sodipodi.sourceforge.net/DTD/sodipodi-0.dtd"
   xmlns="http://www.w3.org/2000/svg"
   xmlns:svg="http://www.w3.org/2000/svg">
  <sodipodi:namedview
     id="namedview67"
     pagecolor="#ffffff"
     bordercolor="#666666"
     borderopacity="1.0"
     inkscape:pageshadow="2"
     inkscape:pageopacity="0.0"
     inkscape:pagecheckerboard="0"
     showgrid="false"
     inkscape:zoom="0.66245722"
     inkscape:cx="909.4927"
     inkscape:cy="361.53278"
     inkscape:window-width="1366"
     inkscape:window-height="705"
     inkscape:window-x="-8"
     inkscape:window-y="-8"
     inkscape:window-maximized="1"
     inkscape:current-layer="svg65" />
  <defs
     id="defs7">
    <path
       id="a"
       d="M-100.463 102.539H63.101v39.853h-163.564z" />
    <path
       id="b"
       d="M-103.328 178.476H676.33v312.333h-779.658z" />
    <path
       id="c"
       d="M-103.328 178.476H676.33v312.333h-779.658z" />
    <path
       id="d"
       d="M-103.328 178.476H676.33v312.333h-779.658z" />
    <path
       id="e"
       d="M-103.328 178.476H676.33v312.333h-779.658z" />
  </defs>
  <text
     xml:space="preserve"
     transform="matrix(.26458 0 0 .26458 47.663 -112.657)"
     style="font-style:normal;font-variant:normal;font-weight:400;font-stretch:normal;font-size:29.3333px;line-height:1.1;font-family:'Spartan MB';-inkscape-font-specification:'Spartan MB';letter-spacing:-1px;white-space:pre;shape-inside:url(#a)"
     id="text11"><tspan
       x="-100.46289"
       y="126.52951"
       id="tspan8378">
</tspan></text>
  <g
     aria-label="Copy &amp; Work"
     style="font-size:29.3333px;font-family:Ribeye;-inkscape-font-specification:Ribeye;letter-spacing:-1px;white-space:pre;fill:#000;stroke-width:1.00205"
     id="g19">
    <g
       style="fill:#000"
       id="g15">
      <path
         style="color:#000;-inkscape-font-specification:'Spartan MB Bold';fill:#000;stroke-width:.982679;-inkscape-stroke:none"
         d="M20.209 51.307c-6.464 0-12.367 5.297-12.367 11.82 0 6.492 5.934 11.822 12.367 11.822 2.505 0 4.386-.53 5.639-1.054 1.025-.43 1.332-.702 1.51-.836l-1.864-3.729c-.579.385-2.058 1.28-4.451 1.28-2.833 0-4.937-1.007-6.307-2.454a7.369 7.369 0 0 1-2.007-5.029c0-1.706.638-3.568 2.007-5.018 1.37-1.45 3.473-2.463 6.307-2.463 2.393 0 3.872.894 4.451 1.28l1.863-3.73c-.177-.135-.484-.405-1.51-.835-1.252-.524-3.133-1.054-5.638-1.054Z"
         transform="matrix(1.72751 0 0 1.72751 11.94 -1.222)"
         id="path13" />
    </g>
    <path
       d="M-64.523 226.802c0-5.133-3.667-8.39-8.36-8.39s-8.36 3.257-8.36 8.39c0 5.104 3.55 8.39 8.243 8.39 4.722 0 8.477-3.286 8.477-8.39zm-12.555 0c0-3.256 1.966-4.81 4.136-4.81 2.171 0 4.195 1.554 4.195 4.81 0 3.227-2.083 4.81-4.253 4.81-2.2 0-4.078-1.583-4.078-4.81zM-58.395 221.023v-2.346h-4.107v23.994h4.107V232.61c.997 1.32 2.816 2.581 5.368 2.581 4.165 0 7.421-3.373 7.421-8.448 0-5.074-3.256-8.33-7.42-8.33-2.524 0-4.4 1.232-5.369 2.61zm8.595 5.72c0 3.08-2.083 4.84-4.312 4.84-2.2 0-4.283-1.701-4.283-4.781 0-3.08 2.083-4.781 4.283-4.781 2.23 0 4.312 1.642 4.312 4.722zM-36.691 230.029l-4.195-11.352h-4.605l6.512 15.84-3.52 8.096h4.37l10.062-23.936h-4.37zM16.834 234.957l4.811-.03 4.019-14.578 3.842 14.578h4.84l5.72-20.474h-4.429L32 230.263l-3.93-15.81h-4.577l-4.165 15.898-3.608-15.898h-4.4zM57.429 226.802c0-5.133-3.667-8.39-8.36-8.39s-8.36 3.257-8.36 8.39c0 5.104 3.55 8.39 8.243 8.39 4.722 0 8.477-3.286 8.477-8.39zm-12.555 0c0-3.256 1.966-4.81 4.136-4.81 2.171 0 4.195 1.554 4.195 4.81 0 3.227-2.083 4.81-4.253 4.81-2.2 0-4.078-1.583-4.078-4.81zM63.557 226.831c0-3.138 1.467-4.077 3.901-4.077h1.086v-4.312c-2.26 0-3.96 1.085-4.987 2.757v-2.522H59.45v16.25h4.107zM70.3 234.927h4.108v-6.922l5.514 6.922h5.339l-7.216-8.096 7.157-8.154h-5.338l-5.456 6.893v-12.35H70.3z"
       style="-inkscape-font-specification:'Poppins Semi-Bold';fill:#000"
       transform="matrix(1.69411 0 0 1.69411 198.545 -269.689)"
       id="path17" />
  </g>
  <path
     style="fill:#f9a91f;fill-opacity:1;stroke:#f9a91f;stroke-width:.111537;stroke-miterlimit:4;stroke-dasharray:none;stroke-opacity:1"
     d="M64.48 53.568c-.864-.07-1.527-.58-1.723-1.328a1.773 1.773 0 0 1-.024-.644c.07-.398.273-.768.573-1.046l.132-.122-.127-.133c-.43-.454-.476-1.214-.112-1.826a2.06 2.06 0 0 1 .42-.456c.134-.1.352-.202.53-.25.14-.037.193-.042.412-.043.478-.002.785.118 1.065.415.325.344.405.842.197 1.235-.078.147-.25.313-.414.397-.129.067-.563.197-.585.175a5.946 5.946 0 0 1-.047-.648c.004-.013.06-.03.128-.041.146-.024.212-.061.256-.147.103-.202-.035-.472-.28-.544a1.441 1.441 0 0 0-.48-.008.758.758 0 0 0-.446.312c-.147.222-.179.553-.073.772.082.172.344.356.627.44.088.026.38.081.43.082.006 0 .01.136.008.303l-.005.303-.203.054c-.502.135-.803.38-.92.748-.145.459.138.87.717 1.04.576.168 1.096.079 1.452-.251.184-.17.265-.44.217-.725l-.01-.06-.1.088c-.441.387-.984.506-1.51.332a2.332 2.332 0 0 1-.478-.242l-.036-.025.141-.275c.078-.152.151-.291.163-.31l.02-.033.184.037c.436.089.727.026.956-.204.13-.13.224-.272.503-.756.288-.5.35-.589.541-.78.136-.134.188-.174.302-.23.186-.091.324-.122.544-.122.188 0 .353.034.508.102.088.039.408.245.409.264 0 .016-.392.466-.407.466-.006 0-.06-.023-.122-.052a.417.417 0 0 0-.226-.05c-.183.002-.392.097-.484.22-.022.029-.129.23-.237.447l-.197.395.048.076c.183.284.281.731.245 1.106-.08.827-.77 1.408-1.809 1.524-.218.024-.5.032-.673.018z"
     transform="translate(-241.418 -219.715) scale(6.52917)"
     id="path21" />
  <text
     xml:space="preserve"
     transform="matrix(.6638 0 0 .6638 213.6 14.076)"
     style="font-size:29.3333px;line-height:1.1;font-family:Ribeye;-inkscape-font-specification:Ribeye;letter-spacing:-0.79717912px;white-space:pre;shape-inside:url(#b);fill:#000;fill-opacity:1"
     id="text27"><tspan
       x="-103.32812"
       y="202.27344"
       id="tspan8382"><tspan
         style="font-weight:300;font-family:Poppins;-inkscape-font-specification:'Poppins Light'"
         id="tspan8380">Write. Progress. Grow.</tspan></tspan></text>
  <text
     xml:space="preserve"
     transform="matrix(0.6638,0,0,0.6638,216.84166,30.345)"
     style="font-size:13.1856px;line-height:1.1;font-family:Ribeye;-inkscape-font-specification:Ribeye;letter-spacing:-0.39859px;white-space:pre;shape-inside:url(#c);fill:#4d4d4d"
     id="text35"><tspan
       x="-103.32812"
       y="189.17349"
       id="tspan8388"><tspan
         style="font-size:10.4097px;font-family:Poppins;-inkscape-font-specification:Poppins"
         id="tspan8384">with</tspan><tspan
         style="font-weight:300;font-family:Poppins;-inkscape-font-specification:'Poppins Light'"
         id="tspan8386"> beauty</tspan></tspan></text>
  <text
     xml:space="preserve"
     transform="matrix(0.6638,0,0,0.6638,363.14834,30.345)"
     style="font-size:13.1856px;line-height:1.1;font-family:Ribeye;-inkscape-font-specification:Ribeye;letter-spacing:-0.39859px;white-space:pre;shape-inside:url(#d);fill:#4d4d4d"
     id="text43"><tspan
       x="-103.32812"
       y="189.17349"
       id="tspan8394"><tspan
         style="font-size:10.4097px;font-family:Poppins;-inkscape-font-specification:Poppins"
         id="tspan8390">in</tspan><tspan
         style="font-weight:300;font-family:Poppins;-inkscape-font-specification:'Poppins Light'"
         id="tspan8392"> virtue</tspan></tspan></text>
  <text
     xml:space="preserve"
     transform="matrix(0.6638,0,0,0.6638,307.71117,30.345)"
     style="font-size:13.1856px;line-height:1.1;font-family:Ribeye;-inkscape-font-specification:Ribeye;letter-spacing:-0.39859px;white-space:pre;shape-inside:url(#e);fill:#4d4d4d"
     id="text53"><tspan
       x="-103.32812"
       y="189.17349"
       id="tspan8402"><tspan
         style="font-weight:300;font-family:Poppins;-inkscape-font-specification:'Poppins Light'"
         id="tspan8396"> </tspan><tspan
         style="font-size:10.4097px;font-family:Poppins;-inkscape-font-specification:Poppins"
         id="tspan8398">in</tspan><tspan
         style="font-weight:300;font-family:Poppins;-inkscape-font-specification:'Poppins Light'"
         id="tspan8400"> skills</tspan></tspan></text>
  <text
     xml:space="preserve"
     style="font-size:9.87484px;line-height:1.1;font-family:Ribeye;-inkscape-font-specification:Ribeye;letter-spacing:-.359176px;fill:#990100;fill-opacity:1;stroke-width:.336641"
     x="44.859"
     y="46.961"
     transform="translate(-241.418 -219.715) scale(6.52917)"
     id="text63"><tspan
       style="font-style:normal;font-variant:normal;font-weight:400;font-stretch:normal;font-family:'Spartan MB';-inkscape-font-specification:'Spartan MB';fill:#990100;fill-opacity:1;stroke-width:.336641"
       x="44.859"
       y="46.961"
       id="tspan61">Con<tspan
   style="letter-spacing:0;fill:#990100;fill-opacity:1;stroke-width:.336641"
   id="tspan57">s<tspan
   style="letter-spacing:.132292px;fill:#990100;fill-opacity:1"
   id="tspan55">t</tspan></tspan>a<tspan
   style="letter-spacing:0;fill:#990100;fill-opacity:1;stroke-width:.336641"
   id="tspan59">nt</tspan></tspan></text>
</svg>
