<svg width="2530.182" height="1266.166" viewBox="0 0 669.444 335.007" xmlns:xlink="http://www.w3.org/1999/xlink" xmlns="http://www.w3.org/2000/svg">
  <path style="fill:#fff;fill-opacity:.989305;stroke:#fff;stroke-width:.568806;stroke-linecap:round;stroke-linejoin:round;stroke-dashoffset:11.6688;paint-order:stroke fill markers;stop-color:#000;stroke-opacity:1" d="M.284.284h668.877v334.438H.284z"/>
  <use xlink:href="#b" x="254.203" y="177.834" width="100%" height="100%" style="fill:#000;fill-opacity:1" transform="translate(19.5 28.118) scale(.35278)"/>
  <use xlink:href="#c" x="273.81" y="169.295" width="100%" height="100%" style="fill:#000;fill-opacity:1" transform="translate(19.5 28.118) scale(.35278)"/>
  <use xlink:href="#d" x="294.098" y="162.528" width="100%" height="100%" style="fill:#000;fill-opacity:1" transform="translate(19.5 28.118) scale(.35278)"/>
  <path style="opacity:1;fill:none;stroke:none;stroke-width:1;stroke-linecap:round;stroke-linejoin:round;stop-color:#000" d="M26.263 61.142h616.971v212.75H26.263z"/>
  <g style="font-size:29.3333px;font-family:Ribeye;-inkscape-font-specification:Ribeye;letter-spacing:-1px;white-space:pre;stroke-width:1.00205">
    <path style="color:#000;-inkscape-font-specification:'Spartan MB Bold';fill:#000;stroke-width:1.00205;-inkscape-stroke:none" d="M-178.337 336.478c-6.59 0-12.61 5.401-12.61 12.053 0 6.62 6.051 12.055 12.61 12.055 2.555 0 4.474-.542 5.75-1.076 1.047-.438 1.359-.715 1.54-.852l-1.9-3.802c-.591.393-2.1 1.304-4.54 1.304-2.889 0-5.035-1.025-6.432-2.5a7.514 7.514 0 0 1-2.046-5.129c0-1.74.65-3.638 2.046-5.117s3.542-2.512 6.432-2.512c2.44 0 3.949.912 4.54 1.305l1.9-3.803c-.181-.137-.493-.413-1.54-.851-1.276-.535-3.195-1.075-5.75-1.075z" transform="translate(614.721 -454.83) scale(1.86993)" aria-label="C"/>
  </g>
  <path style="fill:#990100;fill-opacity:1;stroke:none;stroke-width:2.29736;stroke-miterlimit:4;stroke-dasharray:none;stroke-opacity:1" d="M154.311 231.677c-16.99 5.488-33.626.98-43.234-11.716-2.27-3-4.707-8.303-5.54-12.058-1.804-8.124-.856-16.769 2.681-24.433l1.542-3.342 21.253-4.621 4.59-1.255-3.433 3.09c-16.127 15.637-.227 37 15.664 35.609l6.479 18.73z"/>
  <path style="fill:none;stroke:#ccc;stroke-width:14.4354;stroke-linecap:butt;stroke-linejoin:miter;stroke-miterlimit:4;stroke-dasharray:none;stroke-opacity:1" d="M143.078 195.834c-.536.199-.605-.511-1.123-.279-33.353-4.343-35.682-75.589 13.057-74.01l2.106.005"/>
  <path style="color:#000;fill:#4d4d4d;stroke-width:11.4868;-inkscape-stroke:none" d="m239.403 115.883-31.79 51.018-6.013-44.804-5.25-.695c-8.682-1.181-16.736.977-22.01 6.371-5.272 5.394-7.66 12.713-9.197 21.158-1.04 5.716-1.504 11.86-2.064 18.508-.834 9.908-3.754 14.143-7.044 16.961-2.794 2.391-6.505 3.582-10.299 4.958-3.138-.336-5.022-.726-6.831-1.662l1.874 14.63c1.667.566 3.24 1.174 4.768 1.47.59.112 1.486.118 3.174-.506 3.724-1.376 10.363-3.174 16.377-8.323 6.015-5.15 10.785-13.754 11.846-26.362.564-6.71 1.04-12.545 1.885-17.185 1.303-7.159 3.356-11.765 5.451-13.91 1.066-1.09 3.585-.782 5.183-1.188l9.49 70.76 52.252-83.84z"/>
  <path style="fill:#520;fill-opacity:1;stroke:none;stroke-width:2.29736;stroke-miterlimit:4;stroke-dasharray:none;stroke-opacity:1" d="M184.63 120.476c-3.252.015-6.458.69-9.81 2.07-4.186 1.72-6.577 3.397-9.39 6.592-1.73 1.964-2.41 3.137-3.93 6.769-2.149 5.137-2.62 7.298-4.167 19.102-1.494 11.4-2.173 14.844-3.615 18.348-1.907 4.63-5.228 7.748-10.55 9.755l-2.211 17.777c1.102.033 2.122.023 2.958-.037 11.393-.823 20.773-7.362 26.123-18.212l1.217-2.47.67 1.08c3.14 5.05 3.722 10.818 1.566 15.498-4.184 9.083-13.365 14.88-25.657 16.203-15.891 1.39-31.79-19.972-15.664-35.61l3.434-3.09-4.592 1.256-21.252 4.62-1.542 3.343c-3.537 7.664-4.484 16.309-2.682 24.433.834 3.755 3.27 9.058 5.541 12.058 9.608 12.696 26.245 17.204 43.235 11.716l.002.005c3.409-1.101 8.71-3.463 12.676-5.646 18.858-10.378 27.419-26.88 22.436-43.242-2.262-7.424-7.234-15.848-13.37-19.129l-1.978-1.057.643-9.07c.353-4.99 1.256-9.658 1.441-10.376.793-3.07 4.028-6.978 7.493-8.462 1.8-.77 2.568-.436 4.687-.356 1.393.057 2.626.058 2.741.012.273-.113 4.192-11.773 4.059-12.075-.152-.346-7.872-1.754-9.86-1.8a23.541 23.541 0 0 0-.651-.005zm-51.32 65.184-.103.648a33.46 33.46 0 0 0-.136 1.267z"/>
  <path style="fill:#fc0;fill-opacity:1;stroke:none;stroke-width:2.29736;stroke-miterlimit:4;stroke-dasharray:none;stroke-opacity:1" d="M180.992 116.836c-3.252.015-6.457.69-9.81 2.07-4.187 1.72-6.576 3.398-9.39 6.592-1.73 1.964-2.411 3.137-3.93 6.77-2.149 5.136-2.62 7.297-4.166 19.101-1.494 11.4-2.174 14.845-3.615 18.348-1.757 4.266-4.715 7.248-9.333 9.261l-2.266 18.227c.569.01 1.163.012 1.795.007 11.392-.822 20.773-7.362 26.123-18.212l1.217-2.47.671 1.08c3.139 5.05 3.72 10.818 1.564 15.5-4.183 9.082-13.364 14.878-25.657 16.2-12.356 1.33-20.99-4.263-21.83-14.14-.674-7.941 3.124-14.96 11.621-21.469l3.434-2.63-31.298 5.417-1.542 3.342c-3.537 7.664-4.486 16.309-2.682 24.433.834 3.755 3.27 9.058 5.541 12.058 9.607 12.696 26.244 17.204 43.235 11.716l.003.003c3.409-1.1 8.709-3.463 12.676-5.646 18.856-10.378 27.418-26.881 22.436-43.242-2.263-7.424-7.662-15.15-13.37-19.13l-1.519-1.057.644-9.07c.353-4.988.795-9.657.98-10.375.794-3.07 4.028-6.518 7.493-8.002 1.8-.767 2.569-.901 4.687-.817 1.392.055 2.626.062 2.742.015.273-.113 4.192-11.772 4.058-12.076-.153-.346-7.871-1.754-9.86-1.799a23.598 23.598 0 0 0-.651-.005z"/>
  <path style="fill:maroon;stroke:none;stroke-width:2.29736;stroke-miterlimit:4;stroke-dasharray:none;stroke-opacity:1" d="M122.638 180.736c-12.576 2.78-26.485-4.44-33.448-17.363-1.478-2.744-3.266-8.829-3.601-12.259-.335-3.415.168-8.364 1.221-12.015.82-2.84 1.293-3.855 3.597-7.72 5.035-8.456 10.41-12.605 18.628-14.417 9.513-2.098 19.147 1.779 23.885 9.61 1.771 2.927 2.87 7.74 2.634 11.53-.186 2.979-2.5 12.018-3.116 12.172-.362.092-11.598-5.582-11.952-6.035-.165-.212.104-1.362.64-2.693 1.133-2.832 1.164-4.396.12-6.067-2.484-3.974-8.702-4.392-12.573-.845-1.52 1.391-4.521 6.217-5.235 8.42-1.14 3.507-.837 7.745.795 11.174 2.355 4.948 7.858 9.007 12.849 9.476 3.91.367 9.926-2.313 14.407-6.418 1.405-1.286 5.469-5.833 6.007-6.719.07-.123 2.522 1.261 5.44 3.072l5.312 3.289c-4.18 9.298-12.497 20.91-25.611 23.81z"/>
  <path style="color:#000;fill:#999;stroke-width:11.4868;-inkscape-stroke:none" d="m237.114 114.016-32.733 52.072-6.012-44.892-5.25-.719c-8.683-1.18-16.736.978-22.01 6.372-5.272 5.394-7.66 12.712-9.197 21.156-1.041 5.718-1.505 11.862-2.065 18.51-.698 8.295-2.956 12.624-5.496 15.457-2.54 2.834-5.714 4.861-9.333 6.226-1.232.465-2.518.899-3.814 1.37-.732.092-1.558-.608-2.087-.371l-1.054 11.845c.057.048.659.697 2.154 1.279 1.494.582 3.828.579 5.271.045 1.213-.448 2.741-.974 4.443-1.616 4.379-1.652 10.062-4.22 14.785-9.49 4.722-5.269 8.107-13.023 8.996-23.579.564-6.71 1.04-12.547 1.884-17.186 1.305-7.16 3.357-11.766 5.453-13.91 1.063-1.088 3.59-.782 5.183-1.189l9.466 70.672 53.194-84.649z"/>
  <path style="color:#000;fill:#ccc;stroke-width:11.4868;-inkscape-stroke:none" d="M126.165 196.28c5.122 4.407 10.642 6.295 17.428 7.2l-.157-14.582c-5.254-.684-9.342-3.58-12.517-8.369-2.417-4.05-4.103 12.843-4.754 15.75z"/>
  <g style="font-size:29.3333px;font-family:Ribeye;-inkscape-font-specification:Ribeye;letter-spacing:-1px;white-space:pre;stroke-width:1.00205">
    <path d="M-64.523 226.802c0-5.133-3.667-8.39-8.36-8.39s-8.36 3.257-8.36 8.39c0 5.104 3.55 8.39 8.243 8.39 4.722 0 8.477-3.286 8.477-8.39zm-12.555 0c0-3.256 1.966-4.81 4.136-4.81 2.171 0 4.195 1.554 4.195 4.81 0 3.227-2.083 4.81-4.253 4.81-2.2 0-4.078-1.583-4.078-4.81zm18.683-5.779v-2.346h-4.107v23.994h4.107V232.61c.997 1.32 2.816 2.581 5.368 2.581 4.165 0 7.421-3.373 7.421-8.448 0-5.074-3.256-8.33-7.42-8.33-2.524 0-4.4 1.232-5.369 2.61zm8.595 5.72c0 3.08-2.083 4.84-4.312 4.84-2.2 0-4.283-1.701-4.283-4.781 0-3.08 2.083-4.781 4.283-4.781 2.23 0 4.312 1.642 4.312 4.722zm13.109 3.286-4.195-11.352h-4.605l6.512 15.84-3.52 8.096h4.37l10.062-23.936h-4.37zm53.525 4.928 4.811-.03 4.019-14.578 3.842 14.578h4.84l5.72-20.474h-4.429L32 230.263l-3.93-15.81h-4.577l-4.165 15.898-3.608-15.898h-4.4zm40.595-8.155c0-5.133-3.667-8.39-8.36-8.39s-8.36 3.257-8.36 8.39c0 5.104 3.55 8.39 8.243 8.39 4.722 0 8.477-3.286 8.477-8.39zm-12.555 0c0-3.256 1.966-4.81 4.136-4.81 2.171 0 4.195 1.554 4.195 4.81 0 3.227-2.083 4.81-4.253 4.81-2.2 0-4.078-1.583-4.078-4.81zm18.683.029c0-3.138 1.467-4.077 3.901-4.077h1.086v-4.312c-2.26 0-3.96 1.085-4.987 2.757v-2.522H59.45v16.25h4.107zm6.743 8.096h4.108v-6.922l5.514 6.922h5.339l-7.216-8.096 7.157-8.154h-5.338l-5.456 6.893v-12.35H70.3Z" style="-inkscape-font-specification:'Poppins Semi-Bold'" transform="translate(448.68 -219.8) scale(1.86993)" aria-label="Copy &amp; Work"/>
  </g>
  <g aria-label="Constant" style="font-size:9.87484px;font-family:Ribeye;-inkscape-font-specification:Ribeye;letter-spacing:-.359176px;fill:#990100;stroke-width:.336641">
    <path d="M-25.327 37.3c0 2.33 2.114 4.226 4.415 4.226 1.767 0 2.676-.75 2.676-.75l-.79-1.58s-.652.504-1.6.504c-1.866 0-2.686-1.304-2.686-2.4 0-1.086.82-2.4 2.686-2.4.948 0 1.6.504 1.6.504l.79-1.58s-.909-.75-2.676-.75c-2.311 0-4.415 1.886-4.415 4.226z" style="-inkscape-font-specification:'Spartan MB'" transform="translate(470.503 -124.336) scale(7.20676)"/>
    <path d="M-18.25 38.84c0 1.58 1.313 2.686 3.022 2.686 1.708 0 3.021-1.106 3.021-2.686 0-1.58-1.313-2.685-3.021-2.685-1.709 0-3.022 1.105-3.022 2.685zm1.837 0c0-.7.523-1.194 1.185-1.194a1.16 1.16 0 0 1 1.185 1.194c0 .702-.524 1.195-1.185 1.195-.662 0-1.185-.493-1.185-1.195zm4.647-2.527v5.055h1.748v-2.863c0-.504.513-.988 1.037-.988.563 0 .908.484.908.988v2.863h1.748v-3.337c0-1.412-1.293-1.876-2.222-1.876-.553 0-1.056.286-1.471.68v-.522z" style="-inkscape-font-specification:'Spartan MB'" transform="translate(470.503 -124.336) scale(7.20676)"/>
    <path d="M446.032 136.22c-9.608 0-15.941 4.27-15.941 11.743 0 5.48 3.7 8.041 7.401 9.963 4.128 2.135 8.113 2.42 8.113 5.053 0 2.42-2.135 2.633-3.914 2.633-4.057 0-9.038-4.199-9.038-4.199l-5.124 8.611s5.266 4.91 14.09 4.91c7.473 0 17.294-1.708 17.294-12.454 0-7.472-6.263-10.247-11.102-11.742-3.487-1.067-5.693-1.708-5.693-3.487 0-1.708 1.138-2.206 3.914-2.206 3.843 0 8.113 2.277 8.113 2.277l4.127-8.255s-5.195-2.847-12.24-2.847zm19.143-12.525v13.664h-5.266v9.607h5.266v26.83h12.597v-26.83h7.685v-9.607h-7.685v-13.664Z"/>
    <path d="M1.97 38.84c0 1.482 1.027 2.686 2.508 2.686.682 0 1.264-.296 1.66-.7v.542h1.777v-5.055H6.137v.483c-.414-.404-.977-.641-1.659-.641-1.48 0-2.508 1.204-2.508 2.685zm1.857 0c0-.7.513-1.194 1.175-1.194.652 0 1.175.493 1.175 1.194 0 .692-.494 1.195-1.175 1.195-.711 0-1.175-.503-1.175-1.195z" style="-inkscape-font-specification:'Spartan MB'" transform="translate(470.503 -124.336) scale(7.20676)"/>
    <path d="M533.283 137.36v36.436h12.596v-20.638c0-3.63 3.7-7.117 7.472-7.117 4.056 0 6.547 3.487 6.547 7.117v20.638h12.597v-24.054c0-10.177-9.323-13.522-16.013-13.522-3.985 0-7.614 2.064-10.603 4.91v-3.77zm46.613-13.665v13.664h-5.267v9.607h5.267v26.83h12.596v-26.83h7.686v-9.607h-7.686v-13.664Z"/>
  </g>
  <path style="fill:#f9a91f;fill-opacity:1;stroke:#f9a91f;stroke-width:.111537;stroke-miterlimit:4;stroke-dasharray:none;stroke-opacity:1" d="M-5.998 47.98c-.864-.07-1.527-.58-1.722-1.329a1.773 1.773 0 0 1-.025-.644c.07-.397.273-.768.574-1.046l.131-.121-.126-.134c-.43-.454-.477-1.213-.113-1.826a2.06 2.06 0 0 1 .42-.456c.134-.1.353-.202.531-.25.139-.036.193-.042.411-.042.478-.002.785.118 1.066.415.325.343.404.841.197 1.234-.078.147-.25.313-.415.398-.128.067-.562.196-.584.174a5.946 5.946 0 0 1-.048-.648c.005-.012.06-.03.129-.04.146-.024.212-.062.255-.147.104-.203-.034-.472-.279-.545a1.441 1.441 0 0 0-.481-.007.758.758 0 0 0-.445.312c-.147.222-.179.552-.074.772.083.172.344.355.627.439.089.026.38.082.43.082.007 0 .01.137.008.303l-.004.304-.203.054c-.502.134-.803.379-.92.747-.146.459.138.87.717 1.04.576.169 1.095.079 1.452-.25.183-.17.264-.44.217-.725l-.01-.061-.1.088c-.442.388-.984.507-1.51.332a2.332 2.332 0 0 1-.479-.242l-.036-.024.142-.276c.078-.152.151-.29.162-.309l.02-.033.185.037c.435.088.727.026.956-.204.13-.13.224-.273.503-.756.288-.501.35-.59.541-.78.136-.135.188-.175.302-.23.185-.092.324-.123.544-.122.187 0 .353.033.507.101.089.04.409.246.41.264 0 .016-.393.466-.407.466-.006 0-.061-.023-.123-.051a.417.417 0 0 0-.225-.05c-.183.002-.392.096-.485.22a6.82 6.82 0 0 0-.236.447l-.198.395.049.075c.182.285.281.732.245 1.107-.08.826-.77 1.408-1.81 1.523-.218.025-.5.032-.673.018z" transform="translate(470.503 -124.336) scale(7.20676)"/>
  <path style="fill:none;stroke:gray;stroke-width:.75;stroke-linecap:square;stroke-linejoin:miter;stroke-dashoffset:56.0882;stop-color:#000" d="M236.968 156.609a87.935 87.935 0 0 1-68.713 96.866A87.935 87.935 0 0 1 65.72 193.549a87.935 87.935 0 0 1 50.673-107.41 87.935 87.935 0 0 1 111.452 41.029"/>
</svg>
