<svg width="270.287" height="270.287" viewBox="0 0 71.513 71.513" xmlns:xlink="http://www.w3.org/1999/xlink" xmlns="http://www.w3.org/2000/svg">
  <use xlink:href="#a" x="254.203" y="177.834" width="100%" height="100%" style="fill:#000;fill-opacity:1" transform="matrix(.14315 0 0 .14315 -23.75 -23.007)"/>
  <use xlink:href="#b" x="273.81" y="169.295" width="100%" height="100%" style="fill:#000;fill-opacity:1" transform="matrix(.14315 0 0 .14315 -23.75 -23.007)"/>
  <use xlink:href="#c" x="294.098" y="162.528" width="100%" height="100%" style="fill:#000;fill-opacity:1" transform="matrix(.14315 0 0 .14315 -23.75 -23.007)"/>
  <g transform="matrix(.35286 0 0 .35286 76.5 -45.747)">
    <circle style="fill:#000;stroke:#4d4d4d;stroke-width:2.62002;stroke-linecap:round;stroke-linejoin:round;stop-color:#000" cx="482.65" cy="597.516" r="104.801"/>
    <path style="fill:#fc0;fill-opacity:1;stroke:none;stroke-width:2.53338;stroke-linecap:round;stroke-linejoin:round;stop-color:#000" d="M-115.467 129.647a101.335 101.335 0 0 0-101.335 101.335 101.335 101.335 0 0 0 101.335 101.335A101.335 101.335 0 0 0-14.132 230.982a101.335 101.335 0 0 0-101.335-101.335Zm-36.134 32.105c10.11.077 19.505 5.053 24.611 13.494 2.35 3.882 3.807 10.268 3.494 15.296-.247 3.95-3.315 15.94-4.132 16.145-.48.12-15.384-7.406-15.854-8.006-.22-.283.136-1.808.848-3.573 1.502-3.757 1.544-5.83.158-8.046-3.294-5.271-11.54-5.828-16.676-1.123-2.016 1.845-5.997 8.248-6.945 11.17-1.51 4.651-1.11 10.272 1.056 14.821 3.125 6.565 10.423 11.948 17.043 12.57 5.187.487 13.167-3.068 19.111-8.514 1.863-1.705 7.254-7.736 7.967-8.911.091-.165 3.346 1.673 7.218 4.075l7.043 4.361c-4.684 10.423-13.287 23.034-26.336 29.014-6.032 6.71-8.662 13.872-7.996 21.714 1.114 13.1 12.568 20.517 28.958 18.754 16.305-1.753 28.483-9.44 34.032-21.49 2.86-6.208 2.087-13.859-2.076-20.558l-.888-1.434-1.617 3.277c-7.096 14.392-19.537 23.066-34.649 24.157-.837.007-1.625.005-2.38-.008l3.005-24.177c6.125-2.67 10.049-6.625 12.38-12.284 1.912-4.646 2.812-9.216 4.793-24.338 2.052-15.657 2.677-18.523 5.528-25.338 2.015-4.817 2.917-6.371 5.211-8.976 3.732-4.238 6.904-6.464 12.457-8.746 4.446-1.83 8.698-2.725 13.013-2.745.287 0 .575.002.863.008 2.638.06 12.877 1.928 13.08 2.387.177.402-5.021 15.866-5.384 16.016-.152.064-1.789.055-3.637-.018-2.81-.113-3.83.066-6.216 1.084-4.597 1.968-8.887 6.54-9.94 10.612-.245.953-.832 7.146-1.3 13.763l-.854 12.03 2.014 1.405c7.57 5.277 14.734 15.525 17.734 25.373 6.61 21.702-4.746 43.592-29.759 57.358-5.261 2.895-12.292 6.029-16.813 7.488l-.006-.006c-22.537 7.28-44.604 1.3-57.348-15.54-3.012-3.98-6.244-11.013-7.35-15.995-2.392-10.775-1.133-22.241 3.558-32.407l.756-1.64c-8.58-3.957-16.207-10.978-21.17-20.19-1.96-3.639-4.332-11.71-4.777-16.26-.443-4.53.223-11.094 1.62-15.937 1.086-3.768 1.715-5.114 4.772-10.24 6.679-11.218 13.806-16.72 24.708-19.125a31.713 31.713 0 0 1 7.071-.747z"/>
  </g>
</svg>
